<?xml version="1.0" encoding="UTF-8" standalone="no"?>
<!DOCTYPE svg PUBLIC "-//W3C//DTD SVG 1.1//EN"
 "http://www.w3.org/Graphics/SVG/1.1/DTD/svg11.dtd">
<!-- Generated by graphviz version 14.1.2 (0)
 -->
<!-- Title: ieee80211_mac_schedulers Pages: 1 -->
<svg width="1079pt" height="908pt"
 viewBox="0.00 0.00 1079.00 908.00" xmlns="http://www.w3.org/2000/svg" xmlns:xlink="http://www.w3.org/1999/xlink">
<g id="graph0" class="graph" transform="scale(1 1) rotate(0) translate(8.64 899.37)">
<title>ieee80211_mac_schedulers</title>
<text xml:space="preserve" text-anchor="middle" x="531" y="-875.33" font-family="Helvetica,sans-Serif" font-size="12.00">INET IEEE 802.11 MAC scheduler layers</text>
<g id="clust1" class="cluster">
<title>cluster_vht</title>
<path fill="none" stroke="#bfdbfe" stroke-dasharray="5,2" d="M20,-134.52C20,-134.52 208,-134.52 208,-134.52 214,-134.52 220,-140.52 220,-146.52 220,-146.52 220,-416.06 220,-416.06 220,-422.06 214,-428.06 208,-428.06 208,-428.06 20,-428.06 20,-428.06 14,-428.06 8,-422.06 8,-416.06 8,-416.06 8,-146.52 8,-146.52 8,-140.52 14,-134.52 20,-134.52"/>
<text xml:space="preserve" text-anchor="middle" x="114" y="-412.66" font-family="Helvetica,sans-Serif" font-size="12.00">VHT DL MU&#45;MIMO</text>
</g>
<g id="clust2" class="cluster">
<title>cluster_he_dl</title>
<path fill="none" stroke="#bbf7d0" stroke-dasharray="5,2" d="M830,-14.38C830,-14.38 1042,-14.38 1042,-14.38 1048,-14.38 1054,-20.38 1054,-26.38 1054,-26.38 1054,-410.62 1054,-410.62 1054,-416.62 1048,-422.62 1042,-422.62 1042,-422.62 830,-422.62 830,-422.62 824,-422.62 818,-416.62 818,-410.62 818,-410.62 818,-26.38 818,-26.38 818,-20.38 824,-14.38 830,-14.38"/>
<text xml:space="preserve" text-anchor="middle" x="936" y="-407.22" font-family="Helvetica,sans-Serif" font-size="12.00">HE DL OFDMA</text>
</g>
<g id="clust3" class="cluster">
<title>cluster_he_ul</title>
<path fill="none" stroke="#bbf7d0" stroke-dasharray="5,2" d="M240,-8C240,-8 416,-8 416,-8 422,-8 428,-14 428,-20 428,-20 428,-410.62 428,-410.62 428,-416.62 422,-422.62 416,-422.62 416,-422.62 240,-422.62 240,-422.62 234,-422.62 228,-416.62 228,-410.62 228,-410.62 228,-20 228,-20 228,-14 234,-8 240,-8"/>
<text xml:space="preserve" text-anchor="middle" x="328" y="-407.22" font-family="Helvetica,sans-Serif" font-size="12.00">HE trigger&#45;based UL OFDMA</text>
</g>
<!-- edca -->
<g id="node1" class="node">
<title>edca</title>
<path fill="#f0fdf4" stroke="#4b5563" d="M350.95,-868.48C350.95,-868.48 257.05,-868.48 257.05,-868.48 251.05,-868.48 245.05,-862.48 245.05,-856.48 245.05,-856.48 245.05,-833.59 245.05,-833.59 245.05,-827.59 251.05,-821.59 257.05,-821.59 257.05,-821.59 350.95,-821.59 350.95,-821.59 356.95,-821.59 362.95,-827.59 362.95,-833.59 362.95,-833.59 362.95,-856.48 362.95,-856.48 362.95,-862.48 356.95,-868.48 350.95,-868.48"/>
<text xml:space="preserve" text-anchor="middle" x="304" y="-854.66" font-family="Helvetica,sans-Serif" font-size="10.00">Edca</text>
<text xml:space="preserve" text-anchor="middle" x="304" y="-841.91" font-family="Helvetica,sans-Serif" font-size="10.00">classify QoS traffic</text>
<text xml:space="preserve" text-anchor="middle" x="304" y="-829.16" font-family="Helvetica,sans-Serif" font-size="10.00">select channel owner</text>
</g>
<!-- edcafs -->
<g id="node2" class="node">
<title>edcafs</title>
<path fill="#f0fdf4" stroke="#4b5563" d="M375.7,-773.84C375.7,-773.84 232.3,-773.84 232.3,-773.84 226.3,-773.84 220.3,-767.84 220.3,-761.84 220.3,-761.84 220.3,-738.95 220.3,-738.95 220.3,-732.95 226.3,-726.95 232.3,-726.95 232.3,-726.95 375.7,-726.95 375.7,-726.95 381.7,-726.95 387.7,-732.95 387.7,-738.95 387.7,-738.95 387.7,-761.84 387.7,-761.84 387.7,-767.84 381.7,-773.84 375.7,-773.84"/>
<text xml:space="preserve" text-anchor="middle" x="304" y="-760.02" font-family="Helvetica,sans-Serif" font-size="10.00">Edcaf instances</text>
<text xml:space="preserve" text-anchor="middle" x="304" y="-747.27" font-family="Helvetica,sans-Serif" font-size="10.00">AC_BK / AC_BE / AC_VI / AC_VO</text>
<text xml:space="preserve" text-anchor="middle" x="304" y="-734.52" font-family="Helvetica,sans-Serif" font-size="10.00">per&#45;AC queue, retry, ACK, TXOP</text>
</g>
<!-- edca&#45;&gt;edcafs -->
<g id="edge1" class="edge">
<title>edca&#45;&gt;edcafs</title>
<path fill="none" stroke="#374151" d="M304,-821.14C304,-809.47 304,-795.11 304,-782.46"/>
<polygon fill="#374151" stroke="#374151" points="306.45,-782.54 304,-775.54 301.55,-782.54 306.45,-782.54"/>
<text xml:space="preserve" text-anchor="middle" x="319.38" y="-794.99" font-family="Helvetica,sans-Serif" font-size="8.00">classify</text>
</g>
<!-- contention -->
<g id="node3" class="node">
<title>contention</title>
<path fill="#f0fdf4" stroke="#4b5563" d="M372.32,-679.2C372.32,-679.2 235.68,-679.2 235.68,-679.2 229.68,-679.2 223.68,-673.2 223.68,-667.2 223.68,-667.2 223.68,-655.2 223.68,-655.2 223.68,-649.2 229.68,-643.2 235.68,-643.2 235.68,-643.2 372.32,-643.2 372.32,-643.2 378.32,-643.2 384.32,-649.2 384.32,-655.2 384.32,-655.2 384.32,-667.2 384.32,-667.2 384.32,-673.2 378.32,-679.2 372.32,-679.2"/>
<text xml:space="preserve" text-anchor="middle" x="304" y="-664.45" font-family="Helvetica,sans-Serif" font-size="10.00">Contention</text>
<text xml:space="preserve" text-anchor="middle" x="304" y="-651.7" font-family="Helvetica,sans-Serif" font-size="10.00">IFS + backoff + medium state</text>
</g>
<!-- edcafs&#45;&gt;contention -->
<g id="edge2" class="edge">
<title>edcafs&#45;&gt;contention</title>
<path fill="none" stroke="#374151" d="M304,-726.49C304,-714.63 304,-700.12 304,-687.88"/>
<polygon fill="#374151" stroke="#374151" points="306.45,-687.96 304,-680.96 301.55,-687.96 306.45,-687.96"/>
<text xml:space="preserve" text-anchor="middle" x="335.12" y="-700.35" font-family="Helvetica,sans-Serif" font-size="8.00">request access</text>
</g>
<!-- txop -->
<g id="node4" class="node">
<title>txop</title>
<path fill="#f0fdf4" stroke="#4b5563" d="M356.57,-595.45C356.57,-595.45 251.43,-595.45 251.43,-595.45 245.43,-595.45 239.43,-589.45 239.43,-583.45 239.43,-583.45 239.43,-560.56 239.43,-560.56 239.43,-554.56 245.43,-548.56 251.43,-548.56 251.43,-548.56 356.57,-548.56 356.57,-548.56 362.57,-548.56 368.57,-554.56 368.57,-560.56 368.57,-560.56 368.57,-583.45 368.57,-583.45 368.57,-589.45 362.57,-595.45 356.57,-595.45"/>
<text xml:space="preserve" text-anchor="middle" x="304" y="-581.63" font-family="Helvetica,sans-Serif" font-size="10.00">TxopProcedure</text>
<text xml:space="preserve" text-anchor="middle" x="304" y="-568.88" font-family="Helvetica,sans-Serif" font-size="10.00">TXOP limit + protection</text>
<text xml:space="preserve" text-anchor="middle" x="304" y="-556.13" font-family="Helvetica,sans-Serif" font-size="10.00">remaining duration</text>
</g>
<!-- contention&#45;&gt;txop -->
<g id="edge3" class="edge">
<title>contention&#45;&gt;txop</title>
<path fill="none" stroke="#374151" d="M304,-642.97C304,-631.9 304,-617.19 304,-604.12"/>
<polygon fill="#374151" stroke="#374151" points="306.45,-604.33 304,-597.33 301.55,-604.33 306.45,-604.33"/>
<text xml:space="preserve" text-anchor="middle" x="332.5" y="-616.6" font-family="Helvetica,sans-Serif" font-size="8.00">channel grant</text>
</g>
<!-- grant -->
<g id="node5" class="node">
<title>grant</title>
<path fill="#f5f3ff" stroke="#4b5563" d="M387.32,-500.81C387.32,-500.81 220.68,-500.81 220.68,-500.81 214.68,-500.81 208.68,-494.81 208.68,-488.81 208.68,-488.81 208.68,-476.81 208.68,-476.81 208.68,-470.81 214.68,-464.81 220.68,-464.81 220.68,-464.81 387.32,-464.81 387.32,-464.81 393.32,-464.81 399.32,-470.81 399.32,-476.81 399.32,-476.81 399.32,-488.81 399.32,-488.81 399.32,-494.81 393.32,-500.81 387.32,-500.81"/>
<text xml:space="preserve" text-anchor="middle" x="304" y="-486.06" font-family="Helvetica,sans-Serif" font-size="10.00">HCF grant boundary</text>
<text xml:space="preserve" text-anchor="middle" x="304" y="-473.31" font-family="Helvetica,sans-Serif" font-size="10.00">amendment scheduler may run now</text>
</g>
<!-- txop&#45;&gt;grant -->
<g id="edge4" class="edge">
<title>txop&#45;&gt;grant</title>
<path fill="none" stroke="#374151" d="M304,-548.1C304,-536.24 304,-521.73 304,-509.49"/>
<polygon fill="#374151" stroke="#374151" points="306.45,-509.57 304,-502.57 301.55,-509.57 306.45,-509.57"/>
<text xml:space="preserve" text-anchor="middle" x="323.12" y="-521.96" font-family="Helvetica,sans-Serif" font-size="8.00">EDCA win</text>
</g>
<!-- vhtScheduler -->
<g id="node7" class="node">
<title>vhtScheduler</title>
<path fill="#eff6ff" stroke="#4b5563" d="M199.57,-397.81C199.57,-397.81 28.43,-397.81 28.43,-397.81 22.43,-397.81 16.42,-391.81 16.42,-385.81 16.42,-385.81 16.42,-362.92 16.42,-362.92 16.42,-356.92 22.42,-350.92 28.42,-350.92 28.42,-350.92 199.57,-350.92 199.57,-350.92 205.57,-350.92 211.57,-356.92 211.57,-362.92 211.57,-362.92 211.57,-385.81 211.57,-385.81 211.57,-391.81 205.57,-397.81 199.57,-397.81"/>
<text xml:space="preserve" text-anchor="middle" x="114" y="-383.99" font-family="Helvetica,sans-Serif" font-size="10.00">VhtDlMuScheduler</text>
<text xml:space="preserve" text-anchor="middle" x="114" y="-371.24" font-family="Helvetica,sans-Serif" font-size="10.00">filter eligible AP candidates</text>
<text xml:space="preserve" text-anchor="middle" x="114" y="-358.49" font-family="Helvetica,sans-Serif" font-size="10.00">require same TID and valid identities</text>
</g>
<!-- grant&#45;&gt;vhtScheduler -->
<g id="edge13" class="edge">
<title>grant&#45;&gt;vhtScheduler</title>
<path fill="none" stroke="#374151" d="M249.08,-464.36C235.24,-459.13 220.66,-452.88 207.75,-445.81 185.96,-433.88 163.65,-417.31 146.26,-403.25"/>
<polygon fill="#374151" stroke="#374151" points="148.22,-401.69 141.25,-399.15 145.12,-405.48 148.22,-401.69"/>
<text xml:space="preserve" text-anchor="middle" x="252.38" y="-438.21" font-family="Helvetica,sans-Serif" font-size="8.00">VHT feature snapshot</text>
</g>
<!-- heDlInterface -->
<g id="node10" class="node">
<title>heDlInterface</title>
<path fill="#f0fdf4" stroke="#4b5563" d="M954.2,-392.37C954.2,-392.37 837.8,-392.37 837.8,-392.37 831.8,-392.37 825.8,-386.37 825.8,-380.37 825.8,-380.37 825.8,-368.37 825.8,-368.37 825.8,-362.37 831.8,-356.37 837.8,-356.37 837.8,-356.37 954.2,-356.37 954.2,-356.37 960.2,-356.37 966.2,-362.37 966.2,-368.37 966.2,-368.37 966.2,-380.37 966.2,-380.37 966.2,-386.37 960.2,-392.37 954.2,-392.37"/>
<text xml:space="preserve" text-anchor="middle" x="896" y="-377.62" font-family="Helvetica,sans-Serif" font-size="10.00">IIeee80211HeDlScheduler</text>
<text xml:space="preserve" text-anchor="middle" x="896" y="-364.87" font-family="Helvetica,sans-Serif" font-size="10.00">HeDlSchedulerBase</text>
</g>
<!-- grant&#45;&gt;heDlInterface -->
<g id="edge14" class="edge">
<title>grant&#45;&gt;heDlInterface</title>
<path fill="none" stroke="#374151" d="M399.63,-467.66C430.11,-462.1 463.76,-454.84 494,-445.81 504.83,-442.57 506.62,-439.14 517.5,-436.06 618.97,-407.3 739.86,-390.89 817.24,-382.56"/>
<polygon fill="#374151" stroke="#374151" points="817.31,-385.02 824.02,-381.84 816.8,-380.14 817.31,-385.02"/>
<text xml:space="preserve" text-anchor="middle" x="567.75" y="-438.21" font-family="Helvetica,sans-Serif" font-size="8.00">HE DL provider snapshot</text>
</g>
<!-- heUlInterface -->
<g id="node14" class="node">
<title>heUlInterface</title>
<path fill="#f0fdf4" stroke="#4b5563" d="M386.2,-392.37C386.2,-392.37 269.8,-392.37 269.8,-392.37 263.8,-392.37 257.8,-386.37 257.8,-380.37 257.8,-380.37 257.8,-368.37 257.8,-368.37 257.8,-362.37 263.8,-356.37 269.8,-356.37 269.8,-356.37 386.2,-356.37 386.2,-356.37 392.2,-356.37 398.2,-362.37 398.2,-368.37 398.2,-368.37 398.2,-380.37 398.2,-380.37 398.2,-386.37 392.2,-392.37 386.2,-392.37"/>
<text xml:space="preserve" text-anchor="middle" x="328" y="-377.62" font-family="Helvetica,sans-Serif" font-size="10.00">IIeee80211HeUlScheduler</text>
<text xml:space="preserve" text-anchor="middle" x="328" y="-364.87" font-family="Helvetica,sans-Serif" font-size="10.00">HeUlSchedulerBase</text>
</g>
<!-- grant&#45;&gt;heUlInterface -->
<g id="edge15" class="edge">
<title>grant&#45;&gt;heUlInterface</title>
<path fill="none" stroke="#374151" d="M303.42,-464.6C303.25,-458.65 303.09,-451.94 303,-445.81 302.94,-441.48 302.16,-440.31 303,-436.06 305.4,-423.94 310.25,-411.21 315.04,-400.55"/>
<polygon fill="#374151" stroke="#374151" points="317.25,-401.6 318.01,-394.22 312.82,-399.52 317.25,-401.6"/>
<text xml:space="preserve" text-anchor="middle" x="351" y="-438.21" font-family="Helvetica,sans-Serif" font-size="8.00">HE UL service snapshot</text>
</g>
<!-- mode -->
<g id="node6" class="node">
<title>mode</title>
<path fill="#fefce8" stroke="#4b5563" d="M731.58,-500.81C731.58,-500.81 572.42,-500.81 572.42,-500.81 566.42,-500.81 560.42,-494.81 560.42,-488.81 560.42,-488.81 560.42,-476.81 560.42,-476.81 560.42,-470.81 566.42,-464.81 572.42,-464.81 572.42,-464.81 731.58,-464.81 731.58,-464.81 737.58,-464.81 743.58,-470.81 743.58,-476.81 743.58,-476.81 743.58,-488.81 743.58,-488.81 743.58,-494.81 737.58,-500.81 731.58,-500.81"/>
<text xml:space="preserve" text-anchor="middle" x="652" y="-486.06" font-family="Helvetica,sans-Serif" font-size="10.00">QosRateSelection + PHY mode set</text>
<text xml:space="preserve" text-anchor="middle" x="652" y="-473.31" font-family="Helvetica,sans-Serif" font-size="10.00">legal MCS / duration authority</text>
</g>
<!-- mode&#45;&gt;vhtScheduler -->
<g id="edge16" class="edge">
<title>mode&#45;&gt;vhtScheduler</title>
<path fill="none" stroke="#374151" stroke-dasharray="5,2" d="M560.04,-470.9C519.31,-465.08 471.02,-456.8 428.25,-445.81 415.79,-442.61 413.62,-438.54 401,-436.06 322.86,-420.7 299.17,-447.71 222,-428.06 200.05,-422.47 177.29,-412.14 158.35,-402.1"/>
<polygon fill="#374151" stroke="#374151" points="159.68,-400.03 152.36,-398.85 157.34,-404.34 159.68,-400.03"/>
<text xml:space="preserve" text-anchor="middle" x="460.12" y="-438.21" font-family="Helvetica,sans-Serif" font-size="8.00">PHY constraints</text>
</g>
<!-- mode&#45;&gt;heDlInterface -->
<g id="edge17" class="edge">
<title>mode&#45;&gt;heDlInterface</title>
<path fill="none" stroke="#374151" stroke-dasharray="5,2" d="M700.14,-464.42C715.24,-458.73 731.9,-452.23 747,-445.81 783.54,-430.28 824.23,-410.89 853.85,-396.39"/>
<polygon fill="#374151" stroke="#374151" points="854.57,-398.77 859.77,-393.48 852.41,-394.37 854.57,-398.77"/>
<text xml:space="preserve" text-anchor="middle" x="811.8" y="-438.21" font-family="Helvetica,sans-Serif" font-size="8.00">channel / PHY context</text>
</g>
<!-- mode&#45;&gt;heUlInterface -->
<g id="edge18" class="edge">
<title>mode&#45;&gt;heUlInterface</title>
<path fill="none" stroke="#374151" stroke-dasharray="5,2" d="M645.53,-464.52C640.97,-454.7 633.91,-443.01 624,-436.06 589.56,-411.89 482.07,-394.18 406.59,-384.32"/>
<polygon fill="#374151" stroke="#374151" points="407.23,-381.94 399.97,-383.47 406.6,-386.8 407.23,-381.94"/>
<text xml:space="preserve" text-anchor="middle" x="677.73" y="-438.21" font-family="Helvetica,sans-Serif" font-size="8.00">channel / PHY context</text>
</g>
<!-- vhtRules -->
<g id="node8" class="node">
<title>vhtRules</title>
<path fill="#eff6ff" stroke="#4b5563" d="M194.32,-303.17C194.32,-303.17 33.68,-303.17 33.68,-303.17 27.68,-303.17 21.67,-297.17 21.67,-291.17 21.67,-291.17 21.67,-255.53 21.67,-255.53 21.67,-249.53 27.67,-243.53 33.67,-243.53 33.67,-243.53 194.32,-243.53 194.32,-243.53 200.32,-243.53 206.32,-249.53 206.32,-255.53 206.32,-255.53 206.32,-291.17 206.32,-291.17 206.32,-297.17 200.32,-303.17 194.32,-303.17"/>
<text xml:space="preserve" text-anchor="middle" x="114" y="-289.35" font-family="Helvetica,sans-Serif" font-size="10.00">Bounded selection</text>
<text xml:space="preserve" text-anchor="middle" x="114" y="-276.6" font-family="Helvetica,sans-Serif" font-size="10.00">2..4 users</text>
<text xml:space="preserve" text-anchor="middle" x="114" y="-263.85" font-family="Helvetica,sans-Serif" font-size="10.00">per&#45;user NSTS and receiver limits</text>
<text xml:space="preserve" text-anchor="middle" x="114" y="-251.1" font-family="Helvetica,sans-Serif" font-size="10.00">fresh CSI / active group / Block Ack</text>
</g>
<!-- vhtScheduler&#45;&gt;vhtRules -->
<g id="edge5" class="edge">
<title>vhtScheduler&#45;&gt;vhtRules</title>
<path fill="none" stroke="#374151" d="M114,-350.9C114,-339.38 114,-325.05 114,-311.92"/>
<polygon fill="#374151" stroke="#374151" points="116.45,-312.01 114,-305.01 111.55,-312.01 116.45,-312.01"/>
<text xml:space="preserve" text-anchor="middle" x="132.38" y="-324.32" font-family="Helvetica,sans-Serif" font-size="8.00">eligibility</text>
</g>
<!-- vhtResult -->
<g id="node9" class="node">
<title>vhtResult</title>
<path fill="#eff6ff" stroke="#4b5563" d="M178.2,-189.41C178.2,-189.41 49.8,-189.41 49.8,-189.41 43.8,-189.41 37.8,-183.41 37.8,-177.41 37.8,-177.41 37.8,-154.52 37.8,-154.52 37.8,-148.52 43.8,-142.52 49.8,-142.52 49.8,-142.52 178.2,-142.52 178.2,-142.52 184.2,-142.52 190.2,-148.52 190.2,-154.52 190.2,-154.52 190.2,-177.41 190.2,-177.41 190.2,-183.41 184.2,-189.41 178.2,-189.41"/>
<text xml:space="preserve" text-anchor="middle" x="114" y="-175.59" font-family="Helvetica,sans-Serif" font-size="10.00">Selected candidate indices</text>
<text xml:space="preserve" text-anchor="middle" x="114" y="-162.84" font-family="Helvetica,sans-Serif" font-size="10.00">VHT MU&#45;MIMO plan</text>
<text xml:space="preserve" text-anchor="middle" x="114" y="-150.09" font-family="Helvetica,sans-Serif" font-size="10.00">consumed by VhtHcfFeature</text>
</g>
<!-- vhtRules&#45;&gt;vhtResult -->
<g id="edge6" class="edge">
<title>vhtRules&#45;&gt;vhtResult</title>
<path fill="none" stroke="#374151" d="M114,-243.27C114,-229.11 114,-212.09 114,-197.71"/>
<polygon fill="#374151" stroke="#374151" points="116.45,-198.11 114,-191.11 111.55,-198.11 116.45,-198.11"/>
<text xml:space="preserve" text-anchor="middle" x="160.5" y="-216.93" font-family="Helvetica,sans-Serif" font-size="8.00">deterministic selection</text>
</g>
<!-- heDlPolicies -->
<g id="node11" class="node">
<title>heDlPolicies</title>
<path fill="#f0fdf4" stroke="#4b5563" d="M1033.95,-303.17C1033.95,-303.17 838.05,-303.17 838.05,-303.17 832.05,-303.17 826.05,-297.17 826.05,-291.17 826.05,-291.17 826.05,-255.53 826.05,-255.53 826.05,-249.53 832.05,-243.53 838.05,-243.53 838.05,-243.53 1033.95,-243.53 1033.95,-243.53 1039.95,-243.53 1045.95,-249.53 1045.95,-255.53 1045.95,-255.53 1045.95,-291.17 1045.95,-291.17 1045.95,-297.17 1039.95,-303.17 1033.95,-303.17"/>
<text xml:space="preserve" text-anchor="middle" x="936" y="-289.35" font-family="Helvetica,sans-Serif" font-size="10.00">Policy implementations</text>
<text xml:space="preserve" text-anchor="middle" x="936" y="-276.6" font-family="Helvetica,sans-Serif" font-size="10.00">EqualSizedRUs: equal partitions</text>
<text xml:space="preserve" text-anchor="middle" x="936" y="-263.85" font-family="Helvetica,sans-Serif" font-size="10.00">BacklogBased: backlog + path&#45;loss bound</text>
<text xml:space="preserve" text-anchor="middle" x="936" y="-251.1" font-family="Helvetica,sans-Serif" font-size="10.00">HoLMinDelay: head&#45;of&#45;line delay</text>
</g>
<!-- heDlInterface&#45;&gt;heDlPolicies -->
<g id="edge7" class="edge">
<title>heDlInterface&#45;&gt;heDlPolicies</title>
<path fill="none" stroke="#374151" d="M902.97,-356.12C907.96,-343.76 914.88,-326.64 921.09,-311.26"/>
<polygon fill="#374151" stroke="#374151" points="923.34,-312.23 923.69,-304.82 918.8,-310.39 923.34,-312.23"/>
<text xml:space="preserve" text-anchor="middle" x="952.75" y="-324.32" font-family="Helvetica,sans-Serif" font-size="8.00">schedule(context)</text>
</g>
<!-- heDlFit -->
<g id="node12" class="node">
<title>heDlFit</title>
<path fill="#f0fdf4" stroke="#4b5563" d="M1010.33,-195.78C1010.33,-195.78 855.67,-195.78 855.67,-195.78 849.67,-195.78 843.67,-189.78 843.67,-183.78 843.67,-183.78 843.67,-148.14 843.67,-148.14 843.67,-142.14 849.67,-136.14 855.67,-136.14 855.67,-136.14 1010.33,-136.14 1010.33,-136.14 1016.33,-136.14 1022.33,-142.14 1022.33,-148.14 1022.33,-148.14 1022.33,-183.78 1022.33,-183.78 1022.33,-189.78 1016.33,-195.78 1010.33,-195.78"/>
<text xml:space="preserve" text-anchor="middle" x="933" y="-181.96" font-family="Helvetica,sans-Serif" font-size="10.00">Shared base machinery</text>
<text xml:space="preserve" text-anchor="middle" x="933" y="-169.21" font-family="Helvetica,sans-Serif" font-size="10.00">requested RU size &#45;&gt; valid layout</text>
<text xml:space="preserve" text-anchor="middle" x="933" y="-156.46" font-family="Helvetica,sans-Serif" font-size="10.00">SNR / MCS / NSS / duration</text>
<text xml:space="preserve" text-anchor="middle" x="933" y="-143.71" font-family="Helvetica,sans-Serif" font-size="10.00">duration alignment + puncturing</text>
</g>
<!-- heDlPolicies&#45;&gt;heDlFit -->
<g id="edge8" class="edge">
<title>heDlPolicies&#45;&gt;heDlFit</title>
<path fill="none" stroke="#374151" d="M935.17,-243.27C934.83,-231.18 934.42,-216.99 934.06,-204.15"/>
<polygon fill="#374151" stroke="#374151" points="936.52,-204.38 933.87,-197.46 931.62,-204.52 936.52,-204.38"/>
<text xml:space="preserve" text-anchor="middle" x="984.09" y="-216.93" font-family="Helvetica,sans-Serif" font-size="8.00">ranking / partition policy</text>
</g>
<!-- heDlResult -->
<g id="node13" class="node">
<title>heDlResult</title>
<path fill="#f0fdf4" stroke="#4b5563" d="M1025.7,-82.02C1025.7,-82.02 840.3,-82.02 840.3,-82.02 834.3,-82.02 828.3,-76.02 828.3,-70.02 828.3,-70.02 828.3,-34.38 828.3,-34.38 828.3,-28.38 834.3,-22.38 840.3,-22.38 840.3,-22.38 1025.7,-22.38 1025.7,-22.38 1031.7,-22.38 1037.7,-28.38 1037.7,-34.38 1037.7,-34.38 1037.7,-70.02 1037.7,-70.02 1037.7,-76.02 1031.7,-82.02 1025.7,-82.02"/>
<text xml:space="preserve" text-anchor="middle" x="933" y="-68.19" font-family="Helvetica,sans-Serif" font-size="10.00">Per&#45;STA RuAllocation</text>
<text xml:space="preserve" text-anchor="middle" x="933" y="-55.44" font-family="Helvetica,sans-Serif" font-size="10.00">RU + MCS + NSS + DCM</text>
<text xml:space="preserve" text-anchor="middle" x="933" y="-42.69" font-family="Helvetica,sans-Serif" font-size="10.00">estimated SNR and duration</text>
<text xml:space="preserve" text-anchor="middle" x="933" y="-29.94" font-family="Helvetica,sans-Serif" font-size="10.00">consumed by HeDlMuExchangeProvider</text>
</g>
<!-- heDlFit&#45;&gt;heDlResult -->
<g id="edge9" class="edge">
<title>heDlFit&#45;&gt;heDlResult</title>
<path fill="none" stroke="#374151" d="M933,-135.89C933,-122.15 933,-105.59 933,-90.9"/>
<polygon fill="#374151" stroke="#374151" points="935.45,-91.02 933,-84.02 930.55,-91.02 935.45,-91.02"/>
<text xml:space="preserve" text-anchor="middle" x="959.62" y="-109.54" font-family="Helvetica,sans-Serif" font-size="8.00">fit and return</text>
</g>
<!-- heUlPolicies -->
<g id="node15" class="node">
<title>heUlPolicies</title>
<path fill="#f0fdf4" stroke="#4b5563" d="M407.95,-296.8C407.95,-296.8 248.05,-296.8 248.05,-296.8 242.05,-296.8 236.05,-290.8 236.05,-284.8 236.05,-284.8 236.05,-261.91 236.05,-261.91 236.05,-255.91 242.05,-249.91 248.05,-249.91 248.05,-249.91 407.95,-249.91 407.95,-249.91 413.95,-249.91 419.95,-255.91 419.95,-261.91 419.95,-261.91 419.95,-284.8 419.95,-284.8 419.95,-290.8 413.95,-296.8 407.95,-296.8"/>
<text xml:space="preserve" text-anchor="middle" x="328" y="-282.98" font-family="Helvetica,sans-Serif" font-size="10.00">Policy implementations</text>
<text xml:space="preserve" text-anchor="middle" x="328" y="-270.23" font-family="Helvetica,sans-Serif" font-size="10.00">BacklogBased: capacity + fairness</text>
<text xml:space="preserve" text-anchor="middle" x="328" y="-257.48" font-family="Helvetica,sans-Serif" font-size="10.00">EqualSizedRUs: equal partitions</text>
</g>
<!-- heUlInterface&#45;&gt;heUlPolicies -->
<g id="edge10" class="edge">
<title>heUlInterface&#45;&gt;heUlPolicies</title>
<path fill="none" stroke="#374151" d="M328,-356.12C328,-342.15 328,-322.12 328,-305.38"/>
<polygon fill="#374151" stroke="#374151" points="330.45,-305.49 328,-298.49 325.55,-305.49 330.45,-305.49"/>
<text xml:space="preserve" text-anchor="middle" x="364.75" y="-324.32" font-family="Helvetica,sans-Serif" font-size="8.00">schedule(context)</text>
</g>
<!-- heUlFit -->
<g id="node16" class="node">
<title>heUlFit</title>
<path fill="#f0fdf4" stroke="#4b5563" d="M401.7,-195.78C401.7,-195.78 258.3,-195.78 258.3,-195.78 252.3,-195.78 246.3,-189.78 246.3,-183.78 246.3,-183.78 246.3,-148.14 246.3,-148.14 246.3,-142.14 252.3,-136.14 258.3,-136.14 258.3,-136.14 401.7,-136.14 401.7,-136.14 407.7,-136.14 413.7,-142.14 413.7,-148.14 413.7,-148.14 413.7,-183.78 413.7,-183.78 413.7,-189.78 407.7,-195.78 401.7,-195.78"/>
<text xml:space="preserve" text-anchor="middle" x="330" y="-181.96" font-family="Helvetica,sans-Serif" font-size="10.00">Shared base machinery</text>
<text xml:space="preserve" text-anchor="middle" x="330" y="-169.21" font-family="Helvetica,sans-Serif" font-size="10.00">UORA random&#45;access RU count</text>
<text xml:space="preserve" text-anchor="middle" x="330" y="-156.46" font-family="Helvetica,sans-Serif" font-size="10.00">target RSSI + MCS</text>
<text xml:space="preserve" text-anchor="middle" x="330" y="-143.71" font-family="Helvetica,sans-Serif" font-size="10.00">common HE&#45;TB duration</text>
</g>
<!-- heUlPolicies&#45;&gt;heUlFit -->
<g id="edge11" class="edge">
<title>heUlPolicies&#45;&gt;heUlFit</title>
<path fill="none" stroke="#374151" d="M328.43,-249.48C328.68,-236.3 329,-219.41 329.29,-204.35"/>
<polygon fill="#374151" stroke="#374151" points="331.73,-204.76 329.42,-197.72 326.83,-204.67 331.73,-204.76"/>
<text xml:space="preserve" text-anchor="middle" x="360.56" y="-216.93" font-family="Helvetica,sans-Serif" font-size="8.00">user / RU policy</text>
</g>
<!-- heUlResult -->
<g id="node17" class="node">
<title>heUlResult</title>
<path fill="#f0fdf4" stroke="#4b5563" d="M406.57,-88.39C406.57,-88.39 253.43,-88.39 253.43,-88.39 247.43,-88.39 241.43,-82.39 241.43,-76.39 241.43,-76.39 241.43,-28 241.43,-28 241.43,-22 247.43,-16 253.43,-16 253.43,-16 406.57,-16 406.57,-16 412.57,-16 418.57,-22 418.57,-28 418.57,-28 418.57,-76.39 418.57,-76.39 418.57,-82.39 412.57,-88.39 406.57,-88.39"/>
<text xml:space="preserve" text-anchor="middle" x="330" y="-74.57" font-family="Helvetica,sans-Serif" font-size="10.00">Schedule</text>
<text xml:space="preserve" text-anchor="middle" x="330" y="-61.82" font-family="Helvetica,sans-Serif" font-size="10.00">scheduled + random&#45;access RUs</text>
<text xml:space="preserve" text-anchor="middle" x="330" y="-49.07" font-family="Helvetica,sans-Serif" font-size="10.00">MCS / NSS / target RSSI</text>
<text xml:space="preserve" text-anchor="middle" x="330" y="-36.32" font-family="Helvetica,sans-Serif" font-size="10.00">common duration + Trigger fields</text>
<text xml:space="preserve" text-anchor="middle" x="330" y="-23.57" font-family="Helvetica,sans-Serif" font-size="10.00">consumed by HeUlTriggerService</text>
</g>
<!-- heUlFit&#45;&gt;heUlResult -->
<g id="edge12" class="edge">
<title>heUlFit&#45;&gt;heUlResult</title>
<path fill="none" stroke="#374151" d="M330,-135.89C330,-124 330,-110 330,-96.92"/>
<polygon fill="#374151" stroke="#374151" points="332.45,-97.01 330,-90.01 327.55,-97.01 332.45,-97.01"/>
<text xml:space="preserve" text-anchor="middle" x="356.62" y="-109.54" font-family="Helvetica,sans-Serif" font-size="8.00">fit and return</text>
</g>
<!-- note -->
<g id="node18" class="node">
<title>note</title>
<polygon fill="#fffbeb" stroke="#d97706" points="795.95,-303.17 444.05,-303.17 444.05,-243.53 801.95,-243.53 801.95,-297.17 795.95,-303.17"/>
<polyline fill="none" stroke="#d97706" points="795.95,-303.17 795.95,-297.17"/>
<polyline fill="none" stroke="#d97706" points="801.95,-297.17 795.95,-297.17"/>
<text xml:space="preserve" text-anchor="middle" x="623" y="-289.35" font-family="Helvetica,sans-Serif" font-size="10.00">The scheduler selects users, RUs, and policy outcomes.</text>
<text xml:space="preserve" text-anchor="middle" x="623" y="-276.6" font-family="Helvetica,sans-Serif" font-size="10.00">EDCA still owns contention and TXOP state; PHY mode objects</text>
<text xml:space="preserve" text-anchor="middle" x="623" y="-263.85" font-family="Helvetica,sans-Serif" font-size="10.00">remain authoritative for legal modes and PPDU timing.</text>
<text xml:space="preserve" text-anchor="middle" x="623" y="-251.1" font-family="Helvetica,sans-Serif" font-size="10.00">Scheduler observations are committed only after exchange validation.</text>
</g>
<!-- note&#45;&gt;heDlFit -->
<g id="edge19" class="edge">
<title>note&#45;&gt;heDlFit</title>
<path fill="none" stroke="#374151" stroke-dasharray="5,2" d="M708.94,-243.13C751.95,-228.51 803.86,-210.86 846.89,-196.23"/>
</g>
<!-- note&#45;&gt;heUlFit -->
<g id="edge20" class="edge">
<title>note&#45;&gt;heUlFit</title>
<path fill="none" stroke="#374151" stroke-dasharray="5,2" d="M541.77,-243.13C501.13,-228.51 452.05,-210.86 411.39,-196.23"/>
</g>
</g>
</svg>
